<svg t="1634117978622" class="icon" viewBox="0 0 1024 1024" version="1.1" xmlns="http://www.w3.org/2000/svg" p-id="3029" width="200" height="200"><path d="M509.866667 91.733333l102.4 102.4 21.333333 21.333334h170.666667v170.666666l21.333333 21.333334 100.266667 100.266666-100.266667 100.266667-21.333333 21.333333v170.666667h-170.666667l-21.333333 21.333333-100.266667 108.8-100.266667-100.266666-21.333333-21.333334h-170.666667v-170.666666l-21.333333-21.333334L93.866667 512l102.4-106.666667 21.333333-21.333333V217.6h172.8l21.333333-23.466667 98.133334-102.4m0-91.733333c-8.533333 0-17.066667 2.133333-21.333334 8.533333l-130.133333 134.4H170.666667c-17.066667 0-27.733333 10.666667-27.733334 27.733334v183.466666L8.533333 488.533333c-10.666667 10.666667-10.666667 32 0 42.666667l134.4 134.4V853.333333c0 17.066667 10.666667 27.733333 27.733334 27.733334h187.733333l134.4 134.4c6.4 6.4 12.8 8.533333 19.2 8.533333s12.8-2.133333 19.2-8.533333l134.4-134.4H853.333333c17.066667 0 27.733333-10.666667 27.733334-27.733334v-187.733333l134.4-134.4c10.666667-10.666667 10.666667-27.733333 0-38.4l-134.4-134.4V170.666667c0-17.066667-10.666667-27.733333-27.733334-27.733334h-187.733333L531.2 8.533333c-6.4-6.4-12.8-8.533333-21.333333-8.533333z" fill="#525866" p-id="3030"></path><path d="M704 403.2c-14.933333-14.933333-38.4-14.933333-53.333333 0l-162.133334 162.133333-72.533333-72.533333c-14.933333-14.933333-38.4-14.933333-53.333333 0s-14.933333 38.4 0 53.333333l98.133333 98.133334c8.533333 8.533333 21.333333 12.8 34.133333 10.666666 6.4-2.133333 12.8-4.266667 19.2-10.666666l187.733334-187.733334c14.933333-14.933333 14.933333-38.4 2.133333-53.333333z" fill="#1890FF" p-id="3031"></path></svg>
