<svg t="1635768602461" class="icon" viewBox="0 0 1024 1024" version="1.1" xmlns="http://www.w3.org/2000/svg" p-id="3472" width="200" height="200"><path d="M471.466667 635.733333l253.866666-256c14.933333-14.933333 38.4-14.933333 53.333334 0s14.933333 38.4 0 53.333334L524.8 686.933333c-14.933333 14.933333-38.4 14.933333-53.333333 0s-14.933333-38.4 0-51.2z" fill="#1890FF" p-id="3473"></path><path d="M938.666667 128h-200.533334V81.066667c0-21.333333-17.066667-38.4-38.4-38.4S661.333333 59.733333 661.333333 81.066667V128H354.133333V81.066667c0-21.333333-17.066667-38.4-38.4-38.4S277.333333 59.733333 277.333333 81.066667V128H85.333333c-46.933333 0-85.333333 38.4-85.333333 85.333333v682.666667c0 46.933333 38.4 85.333333 85.333333 85.333333h853.333334c46.933333 0 85.333333-38.4 85.333333-85.333333V213.333333c0-46.933333-38.4-85.333333-85.333333-85.333333z m10.666666 768c0 6.4-4.266667 10.666667-10.666666 10.666667H85.333333c-6.4 0-10.666667-4.266667-10.666666-10.666667V213.333333c0-6.4 4.266667-10.666667 10.666666-10.666666h194.133334v38.4c0 21.333333 17.066667 38.4 38.4 38.4s38.4-17.066667 38.4-38.4V202.666667h309.333333v38.4c0 21.333333 17.066667 38.4 38.4 38.4s38.4-17.066667 38.4-38.4V202.666667H938.666667c6.4 0 10.666667 4.266667 10.666666 10.666666v682.666667z" fill="#525866" p-id="3474"></path><path d="M691.2 736H339.2c-21.333333 0-38.4 17.066667-38.4 38.4s17.066667 38.4 38.4 38.4h352c21.333333 0 38.4-17.066667 38.4-38.4s-17.066667-38.4-38.4-38.4z" fill="#525866" p-id="3475"></path></svg>
