<svg t="1633679269973" class="icon" viewBox="0 0 1024 1024" version="1.1" xmlns="http://www.w3.org/2000/svg" p-id="2519" width="200" height="200"><path d="M436.129485 311.079526 81.422234 66.326733 277.864448 684.181606 400.80425 543.429325 319.759667 364.824064ZM71.932621 90.395034 64.758989 409.145651 257.419878 672.396595ZM938.77801 119.481856 476.400538 313.82313 566.865101 375.25207 423.347712 548.892979 506.11671 730.284749ZM159.351808 577.445581 136.815411 667.388314 283.328205 859.533517 353.728922 627.524506 274.6368 726.67945ZM454.046413 323.441664 342.028902 371.708211 413.975859 528.350106 538.137498 380.360704ZM524.609741 733.971866 866.184294 528.350106 950.25193 130.911744ZM441.071206 621.799834 472.75735 897.287168 638.466253 711.401779 651.63991 675.071693 506.226278 762.502042Z" p-id="2520"></path></svg>
